<?xml version="1.0" standalone="no"?>
<!DOCTYPE svg PUBLIC "-//W3C//DTD SVG 20010904//EN"
 "http://www.w3.org/TR/2001/REC-SVG-20010904/DTD/svg10.dtd">
<svg version="1.0" xmlns="http://www.w3.org/2000/svg"
 width="1862.000000pt" height="875.000000pt" viewBox="0 0 1862.000000 875.000000"
 preserveAspectRatio="xMidYMid meet">
<metadata>
Created by potrace 1.15, written by Peter Selinger 2001-2017
</metadata>
<g transform="translate(0.000000,875.000000) scale(0.100000,-0.100000)"
fill="#000000" stroke="none">
<path d="M3786 8729 c-410 -5 -582 -11 -615 -20 -61 -17 -135 -92 -183 -184
-21 -42 -68 -178 -117 -340 -84 -283 -302 -1034 -366 -1265 -21 -74 -41 -138
-44 -142 -3 -4 -174 425 -380 952 -205 528 -381 966 -391 975 -15 13 -111 15
-813 15 -710 0 -797 -2 -811 -16 -14 -13 -16 -47 -16 -218 0 -152 3 -207 13
-220 9 -12 39 -23 93 -32 175 -30 348 -154 421 -300 l36 -74 9 -193 c14 -310
13 -1308 -1 -1507 -28 -394 -100 -638 -235 -800 -68 -82 -117 -117 -260 -186
-107 -52 -114 -57 -120 -89 -9 -45 4 -216 17 -233 8 -11 161 -12 826 -6 513 4
821 10 829 17 8 6 12 44 12 122 l0 112 -96 7 c-197 15 -323 64 -425 165 -133
133 -216 384 -248 756 -13 142 -15 1794 -3 1779 5 -5 46 -94 92 -199 75 -171
688 -1536 954 -2125 59 -129 114 -241 123 -247 23 -17 184 -17 205 0 15 11
259 827 692 2315 62 210 119 389 138 425 l32 62 9 -45 c14 -76 14 -2052 -1
-2207 -23 -238 -79 -386 -187 -498 -73 -75 -135 -112 -234 -141 l-76 -22 -3
-124 c-2 -92 1 -128 10 -135 9 -7 370 -13 1039 -17 963 -7 1026 -6 1040 10 10
12 14 46 14 126 0 131 -7 141 -104 151 -76 8 -127 29 -169 70 -84 80 -153 297
-187 585 -19 160 -32 1906 -17 2182 11 203 29 265 96 338 39 43 160 112 196
112 9 0 24 6 34 13 16 12 17 25 10 146 -5 93 -11 137 -21 147 -11 11 -42 14
-131 12 -64 -1 -373 -5 -686 -9z"/>
<path d="M11575 8729 c-139 -13 -249 -37 -376 -79 -220 -73 -379 -169 -535
-325 -202 -201 -330 -449 -393 -761 -16 -79 -41 -271 -41 -314 0 -5 -115 -6
-255 -3 -186 5 -258 3 -268 -6 -35 -29 -27 -190 11 -209 9 -5 92 -12 183 -15
120 -4 181 -11 220 -24 94 -31 89 11 88 -718 0 -346 -4 -703 -7 -792 -7 -159
-7 -162 -37 -205 -51 -72 -137 -108 -299 -124 -101 -10 -106 -17 -106 -163 0
-92 3 -121 15 -131 11 -9 216 -10 917 -5 497 3 913 8 925 11 14 2 26 16 33 40
15 45 9 159 -10 199 -14 28 -20 30 -107 42 -51 6 -114 21 -141 33 -94 41 -155
129 -188 275 -17 73 -19 128 -18 590 0 281 4 603 8 718 l8 207 268 0 c255 0
268 1 285 20 38 42 29 177 -14 199 -9 5 -132 12 -273 16 l-258 7 0 289 c0 310
13 462 51 585 47 153 126 252 237 295 45 18 79 22 157 23 163 1 258 -41 330
-145 45 -65 72 -158 106 -363 47 -277 99 -394 205 -465 148 -98 361 -93 580
14 264 128 343 373 208 645 -40 81 -61 109 -143 191 -325 323 -853 497 -1366
448z"/>
<path d="M5680 8368 c-242 -34 -403 -161 -456 -361 -16 -61 -18 -212 -3 -276
52 -227 265 -367 528 -346 343 28 534 233 535 575 1 98 -1 110 -31 173 -90
190 -296 275 -573 235z"/>
<path d="M14510 7664 c-384 -287 -562 -394 -891 -534 -79 -34 -147 -67 -151
-73 -4 -7 -8 -38 -8 -70 0 -48 4 -62 25 -82 22 -23 32 -25 111 -25 162 0 261
-30 308 -93 26 -35 25 10 7 -856 -16 -731 -16 -734 42 -851 47 -95 160 -207
257 -253 162 -77 375 -103 617 -76 150 17 275 52 403 116 98 49 126 69 195
138 127 126 175 240 175 416 0 108 -9 122 -70 111 -39 -6 -47 -13 -62 -43 -23
-50 -99 -114 -167 -141 -44 -17 -77 -22 -151 -23 -112 0 -154 17 -217 89 -74
84 -73 71 -73 772 l0 624 369 0 c410 0 394 -3 407 66 10 56 -3 135 -26 158
-20 20 -33 21 -385 24 l-365 4 0 362 c0 268 -3 365 -12 374 -7 7 -40 12 -77
12 l-66 0 -195 -146z"/>
<path d="M9014 7339 c-94 -21 -113 -76 -71 -200 l22 -65 -112 53 c-249 119
-433 162 -714 170 -209 6 -337 -4 -496 -38 -439 -94 -669 -311 -690 -649 -13
-220 61 -405 231 -576 226 -227 427 -299 1101 -393 253 -36 342 -60 391 -106
29 -28 34 -39 34 -80 0 -158 -182 -248 -525 -262 -315 -13 -521 56 -700 232
-101 100 -151 172 -231 340 -36 73 -70 135 -77 137 -22 8 -279 -10 -288 -19
-10 -10 -38 -676 -39 -899 0 -165 -7 -158 185 -183 167 -22 189 -18 200 37 29
132 78 228 134 257 58 30 89 20 220 -68 206 -138 513 -246 793 -276 330 -37
667 32 948 193 246 141 369 292 406 498 46 250 -55 469 -286 625 -179 121
-425 199 -912 293 -329 62 -624 192 -708 310 -91 128 12 279 235 346 94 29
264 24 380 -10 297 -88 457 -245 510 -500 l6 -28 167 4 c219 5 273 27 308 125
28 79 11 601 -21 650 -23 35 -84 61 -181 78 -96 17 -158 18 -220 4z"/>
<path d="M17868 7335 c-26 -9 -54 -25 -63 -37 -21 -30 -19 -87 5 -155 11 -31
18 -58 16 -60 -1 -2 -52 20 -112 48 -132 62 -275 110 -409 139 -141 31 -461
39 -631 16 -460 -60 -738 -236 -831 -525 -23 -72 -28 -263 -10 -342 49 -204
162 -368 349 -499 200 -141 381 -194 968 -279 241 -36 283 -45 338 -72 67 -33
92 -65 92 -119 0 -47 -23 -91 -69 -133 -96 -87 -242 -120 -521 -121 -171 0
-205 3 -275 22 -273 76 -458 249 -604 565 -30 64 -59 117 -65 120 -16 5 -287
-10 -293 -17 -8 -7 -32 -662 -33 -867 0 -146 2 -168 18 -182 11 -10 68 -23
166 -36 170 -24 189 -20 201 41 35 178 117 281 208 264 20 -4 78 -34 129 -68
232 -153 523 -256 810 -287 257 -28 514 6 753 101 324 128 533 320 590 543 19
74 19 243 1 312 -68 256 -315 440 -749 558 -52 14 -206 48 -343 74 -396 78
-646 173 -766 291 -97 95 -101 175 -13 269 104 111 297 161 491 127 191 -33
330 -100 446 -216 82 -82 126 -156 149 -255 6 -27 13 -56 15 -64 4 -11 36 -12
172 -9 177 5 221 14 270 60 52 50 64 195 41 533 -11 172 -18 193 -69 220 -86
44 -290 66 -372 40z"/>
<path d="M12455 7092 l-570 -117 -6 -30 c-18 -86 -1 -173 39 -194 10 -5 51
-17 91 -25 173 -36 301 -158 330 -313 8 -41 -12 -908 -23 -1015 -7 -65 -47
-138 -103 -188 -76 -67 -167 -105 -279 -116 -51 -5 -67 -11 -76 -27 -14 -27
-5 -176 11 -186 12 -8 751 -19 1500 -23 376 -2 394 -1 407 17 18 24 19 164 2
188 -9 11 -50 24 -118 37 -237 45 -321 132 -367 383 -22 115 -23 426 -5 1042
14 479 10 554 -32 609 -13 18 -42 41 -63 52 -77 37 -128 30 -738 -94z"/>
<path d="M5510 7069 c-300 -66 -552 -124 -560 -128 -19 -10 -30 -92 -20 -151
11 -60 46 -90 105 -90 172 0 331 -138 365 -318 10 -56 -26 -997 -41 -1055 -25
-94 -135 -157 -311 -176 -101 -12 -125 -22 -134 -57 -8 -30 0 -226 9 -241 4
-6 230 -12 649 -16 354 -4 743 -12 864 -19 248 -13 271 -9 305 46 28 46 27
164 -2 200 -11 14 -30 26 -42 26 -31 0 -122 44 -169 82 -56 44 -132 157 -167
247 -67 173 -79 322 -62 756 7 160 14 421 18 580 6 280 5 291 -15 331 -11 22
-39 53 -63 69 -77 54 -110 50 -729 -86z"/>
<path d="M4930 4003 c-91 -2 -385 -7 -655 -11 l-490 -7 -47 -28 c-53 -31 -101
-86 -146 -167 -33 -60 -113 -321 -368 -1203 -86 -301 -161 -544 -164 -540 -4
5 -173 433 -375 953 -202 520 -375 953 -384 962 -15 16 -81 18 -812 24 l-796
7 -23 -23 c-22 -22 -22 -25 -18 -226 3 -163 6 -206 18 -217 8 -8 53 -21 100
-30 117 -22 211 -71 304 -158 86 -81 128 -154 147 -259 17 -97 18 -1551 1
-1725 -27 -273 -64 -430 -137 -580 -80 -164 -169 -249 -362 -341 l-113 -54 0
-124 c0 -98 3 -126 15 -136 24 -20 1653 -9 1666 11 5 8 9 62 9 121 0 124 12
113 -130 122 -366 24 -530 213 -622 721 -22 117 -22 143 -25 1055 l-3 935 84
-190 c234 -533 1066 -2376 1079 -2392 11 -15 194 -18 216 -4 12 8 190 600 607
2031 177 606 220 736 250 761 12 9 14 4 14 -32 0 -24 5 -344 10 -711 9 -687 0
-1408 -20 -1568 -16 -122 -36 -194 -81 -288 -70 -145 -200 -252 -347 -286
l-57 -13 0 -134 0 -134 300 -6 c165 -3 632 -7 1037 -8 l737 -1 12 21 c31 58
17 242 -19 253 -9 3 -48 10 -86 16 -84 13 -133 37 -176 86 -85 98 -155 359
-180 675 -8 98 -10 474 -8 1189 l3 1045 23 62 c42 111 124 183 260 227 l52 18
0 131 c0 73 -4 137 -8 143 -14 21 -51 34 -89 32 -21 -1 -112 -4 -203 -5z"/>
<path d="M11160 3194 c-450 -109 -558 -138 -572 -155 -12 -14 -18 -38 -18 -74
0 -108 34 -145 134 -145 146 0 273 -96 327 -247 21 -56 21 -79 26 -828 7
-1032 0 -1122 -98 -1230 -58 -62 -113 -87 -243 -110 -50 -8 -97 -21 -104 -29
-11 -11 -15 -38 -15 -98 0 -92 18 -149 52 -168 16 -8 228 -8 824 -1 441 6 823
13 849 15 91 9 124 57 116 167 -5 75 -24 95 -103 110 -173 32 -310 178 -371
394 -22 79 -32 474 -14 561 15 70 56 119 92 109 55 -17 82 -63 323 -550 253
-510 296 -584 389 -657 152 -120 349 -155 819 -146 199 4 220 6 245 25 60 44
30 126 -56 154 -75 24 -130 59 -180 114 -62 67 -101 136 -181 314 -33 73 -79
167 -102 207 -68 119 -191 275 -313 397 -193 194 -379 301 -581 334 -154 25
-143 20 -99 52 46 33 484 276 632 350 207 104 391 161 591 182 140 15 155 27
154 122 -1 83 -14 113 -55 125 -33 10 -1230 24 -1255 15 -15 -5 -18 -169 -4
-191 4 -7 41 -18 82 -23 83 -12 104 -21 119 -50 17 -30 -21 -99 -83 -154 -47
-42 -488 -325 -532 -341 -17 -7 -18 -3 -12 47 3 30 9 362 13 739 l7 686 -34
38 c-44 50 -100 76 -164 75 -27 -1 -300 -62 -605 -135z"/>
<path d="M16944 2984 c-184 -140 -432 -315 -530 -374 -97 -59 -324 -169 -464
-225 -52 -21 -101 -45 -107 -54 -8 -8 -13 -42 -13 -77 0 -56 3 -65 26 -83 22
-18 41 -21 112 -21 166 0 267 -32 305 -98 23 -39 24 -129 7 -767 -16 -595 -14
-781 10 -857 55 -179 224 -331 425 -382 100 -25 252 -39 375 -32 472 24 800
231 866 546 17 82 16 222 -2 240 -7 7 -27 8 -54 4 -34 -6 -46 -13 -59 -38 -29
-56 -105 -122 -167 -146 -143 -55 -282 -32 -367 59 -84 89 -82 75 -82 786 l0
620 370 -4 c368 -4 370 -4 389 18 38 42 31 178 -11 213 -12 10 -98 14 -382 18
l-366 5 4 358 c2 273 0 361 -9 372 -9 11 -33 15 -81 15 l-68 0 -127 -96z"/>
<path d="M10250 2491 c-211 -57 -352 -169 -558 -445 l-67 -90 -5 191 c-5 173
-7 194 -26 220 -32 43 -89 68 -159 67 -85 -1 -1062 -276 -1087 -306 -23 -26
-24 -117 -3 -163 21 -42 45 -53 135 -58 50 -3 91 -12 125 -27 69 -33 172 -139
217 -226 70 -133 71 -142 76 -600 2 -288 0 -424 -8 -453 -15 -56 -78 -123
-139 -150 -27 -11 -91 -28 -142 -37 -136 -23 -139 -25 -139 -133 0 -97 12
-146 40 -161 23 -12 1532 -13 1604 -1 29 5 55 16 63 27 18 24 18 237 1 251 -7
6 -47 18 -89 27 -289 63 -459 368 -459 821 0 276 60 502 149 562 54 36 65 31
79 -34 25 -119 88 -219 170 -271 79 -51 149 -66 282 -59 301 14 496 163 561
427 21 85 18 273 -5 340 -51 147 -157 245 -311 285 -79 20 -223 18 -305 -4z"/>
<path d="M6536 2410 c-335 -39 -612 -160 -821 -362 -185 -177 -249 -339 -200
-506 31 -103 126 -190 233 -213 77 -16 212 0 288 35 132 61 170 117 208 316
46 233 122 358 260 425 208 100 483 55 596 -98 60 -82 74 -137 75 -294 0 -78
-3 -144 -6 -147 -3 -4 -98 -31 -210 -61 -417 -110 -960 -274 -1164 -351 -226
-85 -341 -227 -375 -463 -38 -260 80 -468 335 -591 140 -67 200 -81 394 -87
335 -11 605 51 844 194 86 52 226 176 272 242 15 23 31 41 36 41 4 0 13 -16
19 -35 19 -58 103 -177 167 -235 71 -67 177 -124 264 -145 84 -19 293 -20 377
0 116 28 188 81 217 164 18 52 20 172 3 189 -7 7 -37 12 -68 12 -84 0 -155 25
-205 71 -66 61 -69 77 -59 348 5 130 9 382 9 561 -1 271 -4 335 -18 387 -69
257 -310 445 -698 542 -67 17 -174 38 -238 46 -144 19 -429 27 -535 15z m659
-1197 c-14 -174 -58 -281 -161 -392 -155 -167 -382 -267 -591 -259 -73 2 -97
7 -119 24 -65 48 -87 117 -64 204 25 97 213 232 496 357 157 69 385 151 423
152 23 1 23 1 16 -86z"/>
<path d="M14750 2409 c-713 -91 -1240 -694 -1172 -1341 15 -144 41 -238 101
-363 160 -335 505 -583 924 -664 496 -96 972 55 1248 395 108 133 219 317 219
364 0 28 -64 205 -81 227 -6 7 -18 13 -26 13 -8 0 -65 -48 -126 -108 -171
-163 -320 -256 -477 -299 -92 -25 -358 -25 -450 0 -117 33 -226 93 -305 171
-75 75 -134 161 -119 176 5 4 250 111 544 236 294 126 594 258 665 294 123 62
130 67 133 97 5 48 -33 175 -83 280 -138 292 -356 468 -640 518 -93 16 -248
18 -355 4z m158 -380 c70 -34 124 -94 171 -188 53 -105 90 -261 67 -280 -15
-12 -754 -351 -765 -351 -31 0 -35 364 -7 475 81 312 305 456 534 344z"/>
</g>
</svg>
